<svg width="20" height="19" viewBox="0 0 20 19" fill="none" xmlns="http://www.w3.org/2000/svg">
<path d="M19.8779 17.491L14.0681 12.3406C15.17 11.1345 15.8334 9.6013 15.8334 7.93197C15.8334 4.06218 12.2819 0.913818 7.91666 0.913818C3.55142 0.913818 0 4.06218 0 7.93197C0 11.8018 3.55146 14.9501 7.9167 14.9501C9.79975 14.9501 11.5293 14.3621 12.8897 13.3852L18.6996 18.5356C18.8624 18.6799 19.1261 18.6799 19.2889 18.5356L19.878 18.0134C20.0407 17.8691 20.0407 17.6352 19.8779 17.491ZM7.9167 13.4726C4.47025 13.4726 1.66668 10.9873 1.66668 7.93197C1.66668 4.87669 4.47025 2.39133 7.9167 2.39133C11.3632 2.39133 14.1667 4.87669 14.1667 7.93197C14.1667 10.9873 11.3632 13.4726 7.9167 13.4726Z" fill="white"/>
</svg>